# xmcd
#
# Track frame offsets: 
#        150
#        16802
#        34895
#
# Disc length: 696 seconds
#
# Revision: 7
# Processed by: cddbd v1.5.2PL0 Copyright (c) Steve Scherf et al.
# Submitted via: ExactAudioCopyFreeDBPlugin 1.0
#
DISCID=1902b603
DTITLE=Brian McKnight - Hold Me [CD Single)
DYEAR=1998
DGENRE=R&B
TTITLE0=Trackmasters Remix Edit  (featuring Tone)
TTITLE1=Trackmasters Remix Edit  (featuring Tone and Kobe Bryant)
TTITLE2=Live Version
EXTD=YEAR: 1995
EXTT0=
EXTT1=
EXTT2=
PLAYORDER=
